<svg xmlns="http://www.w3.org/2000/svg" viewBox="0 0 200 200" width="200" height="200">
  <!-- Corps -->
  <ellipse cx="100" cy="120" rx="55" ry="50" fill="#FF8C42"/>
  <!-- Tête -->
  <circle cx="100" cy="75" r="45" fill="#FF8C42"/>
  <!-- Oreilles -->
  <polygon points="60,40 45,10 78,35" fill="#FF8C42"/>
  <polygon points="140,40 155,10 122,35" fill="#FF8C42"/>
  <polygon points="63,38 52,18 76,36" fill="#FFB088"/>
  <polygon points="137,38 148,18 124,36" fill="#FFB088"/>
  <!-- Yeux -->
  <ellipse cx="83" cy="72" rx="10" ry="12" fill="#2D5A27"/>
  <ellipse cx="117" cy="72" rx="10" ry="12" fill="#2D5A27"/>
  <ellipse cx="83" cy="73" rx="5" ry="9" fill="#1a1a1a"/>
  <ellipse cx="117" cy="73" rx="5" ry="9" fill="#1a1a1a"/>
  <circle cx="86" cy="69" r="2.5" fill="white"/>
  <circle cx="120" cy="69" r="2.5" fill="white"/>
  <!-- Nez -->
  <ellipse cx="100" cy="83" rx="5" ry="4" fill="#FF6B9D"/>
  <!-- Bouche -->
  <path d="M95 87 Q100 92 105 87" stroke="#333" stroke-width="1.5" fill="none"/>
  <!-- Moustaches -->
  <line x1="60" y1="82" x2="93" y2="84" stroke="#555" stroke-width="1.2"/>
  <line x1="60" y1="87" x2="93" y2="86" stroke="#555" stroke-width="1.2"/>
  <line x1="107" y1="84" x2="140" y2="82" stroke="#555" stroke-width="1.2"/>
  <line x1="107" y1="86" x2="140" y2="87" stroke="#555" stroke-width="1.2"/>
  <!-- Queue -->
  <path d="M155 140 Q180 110 165 90" stroke="#FF8C42" stroke-width="10" stroke-linecap="round" fill="none"/>
</svg>
