<svg xmlns="http://www.w3.org/2000/svg" viewBox="0 0 200 200" width="200" height="200">
  <!-- Corps blanc -->
  <ellipse cx="100" cy="128" rx="52" ry="46" fill="#f5f5f5"/>
  <!-- Tête blanche -->
  <circle cx="100" cy="80" r="46" fill="#f5f5f5"/>
  <!-- Oreilles noires -->
  <circle cx="60" cy="44" r="22" fill="#1a1a1a"/>
  <circle cx="140" cy="44" r="22" fill="#1a1a1a"/>
  <!-- Cernes noirs autour des yeux -->
  <ellipse cx="82" cy="76" rx="17" ry="15" fill="#1a1a1a" transform="rotate(-15 82 76)"/>
  <ellipse cx="118" cy="76" rx="17" ry="15" fill="#1a1a1a" transform="rotate(15 118 76)"/>
  <!-- Yeux -->
  <circle cx="82" cy="76" r="9" fill="white"/>
  <circle cx="118" cy="76" r="9" fill="white"/>
  <circle cx="82" cy="77" r="5" fill="#1a1a1a"/>
  <circle cx="118" cy="77" r="5" fill="#1a1a1a"/>
  <circle cx="84" cy="75" r="2" fill="white"/>
  <circle cx="120" cy="75" r="2" fill="white"/>
  <!-- Nez -->
  <ellipse cx="100" cy="90" rx="8" ry="6" fill="#1a1a1a"/>
  <!-- Bouche -->
  <path d="M93 95 Q100 101 107 95" stroke="#555" stroke-width="1.5" fill="none"/>
  <!-- Taches noires du corps -->
  <ellipse cx="60" cy="118" rx="20" ry="25" fill="#1a1a1a" opacity="0.85"/>
  <ellipse cx="140" cy="118" rx="20" ry="25" fill="#1a1a1a" opacity="0.85"/>
</svg>
